<svg xmlns="http://www.w3.org/2000/svg" width="512" height="512" viewBox="0 0 512 512">
  <defs>
    <linearGradient id="bg" x1="0" y1="0" x2="1" y2="1">
      <stop offset="0%" stop-color="#0fa4c6"/>
      <stop offset="100%" stop-color="#0b7c9c"/>
    </linearGradient>
    <linearGradient id="tooth" x1="0" y1="0" x2="1" y2="1">
      <stop offset="0%" stop-color="#c9f1ff"/>
      <stop offset="100%" stop-color="#91dcef"/>
    </linearGradient>
  </defs>
  <circle cx="256" cy="256" r="256" fill="url(#bg)"/>
  <path d="M145 85c-23 7-44 33-51 63-6 27-4 55 7 86 5 14 9 30 12 47 4 23 13 44 29 62 10 11 18 21 22 28 9 16 22 34 37 41 10 5 18 1 24-9 12-22 18-45 28-67 7-16 16-31 29-43 25-23 54-37 71-63 12-19 18-43 16-65-2-25-12-49-30-64-17-15-40-19-61-13-17 5-31 16-44 29-7 7-15 13-24 15-10 2-21-1-31-6-13-6-27-14-44-14-7 0-13 1-19 3z" fill="url(#tooth)"/>
  <path d="M339 91c-23 1-42 18-54 34-12 16-17 36-16 56 2 32 19 53 36 75 9 11 18 22 22 34 5 15 8 30 13 44 4 11 13 24 25 24 6 0 12-4 18-10 18-17 29-39 35-62 4-16 7-32 13-46 12-32 14-59 10-85-4-27-16-55-43-62-8-2-17-3-25-2z" fill="#ffffff"/>
</svg>
